<svg xmlns="http://www.w3.org/2000/svg" width="64.891" height="78.354" viewBox="0 0 64.891 78.354">
  <g id="Group_10" data-name="Group 10" transform="translate(-1629.625 -232.204)">
    <path id="Path_36" data-name="Path 36" d="M410.676,72.956H387.455v5.328h23.222V72.956Zm-23.222,9V87.3h23.222v-5.35H387.455Zm.165,9.028a6.516,6.516,0,0,0,1.764,3.252,6.384,6.384,0,0,0,4.695,2.066h16.6V90.979H387.62Z" transform="translate(1263.019 179.752)" fill="#e1251b"/>
    <path id="Path_35" data-name="Path 35" d="M57.515,10.5A32.46,32.46,0,0,0,11.609,56.4L34.562,79.357,57.515,56.4A32.491,32.491,0,0,0,57.515,10.5ZM53.615,52.5,34.562,71.557,15.509,52.5a26.945,26.945,0,1,1,38.106,0Z" transform="translate(1627.506 231.202)" fill="#e1251b"/>
  </g>
</svg>
