<svg xmlns="http://www.w3.org/2000/svg" width="26.504" height="21.526" viewBox="0 0 26.504 21.526"><path d="M23.78,8.745c.017.235.017.471.017.706A15.349,15.349,0,0,1,8.341,24.907,15.351,15.351,0,0,1,0,22.468a11.238,11.238,0,0,0,1.312.067,10.879,10.879,0,0,0,6.744-2.321,5.442,5.442,0,0,1-5.079-3.767A6.85,6.85,0,0,0,4,16.532a5.745,5.745,0,0,0,1.429-.185,5.433,5.433,0,0,1-4.356-5.331v-.067a5.471,5.471,0,0,0,2.455.689A5.44,5.44,0,0,1,1.85,4.373a15.44,15.44,0,0,0,11.2,5.684,6.132,6.132,0,0,1-.135-1.244,5.437,5.437,0,0,1,9.4-3.717,10.7,10.7,0,0,0,3.448-1.312,5.417,5.417,0,0,1-2.388,2.993A10.89,10.89,0,0,0,26.5,5.937,11.677,11.677,0,0,1,23.78,8.745Z" transform="translate(0 -3.381)"/></svg>