<svg xmlns="http://www.w3.org/2000/svg" width="232" height="20" viewBox="0 0 232 20">
  <g id="Group_21" data-name="Group 21" transform="translate(-38.002 -72.956)">
    <path id="Path_46" data-name="Path 46" d="M38,87.013a5.426,5.426,0,0,0,1.844,4.172,6.414,6.414,0,0,0,4.488,1.77H55.713a6.414,6.414,0,0,0,4.488-1.77,5.426,5.426,0,0,0,1.845-4.172V72.956H44.334a6.41,6.41,0,0,0-4.488,1.765A5.44,5.44,0,0,0,38,78.894v8.12Zm5-8.419a1.065,1.065,0,0,1,.389-.782,1.418,1.418,0,0,1,.943-.3h1.532v.014H57.05v9.8a1.1,1.1,0,0,1-.389.782,1.43,1.43,0,0,1-.948.3H54.181v-.014H45.866V88.4H44.334a1.416,1.416,0,0,1-.943-.3A1.08,1.08,0,0,1,43,87.318Z" transform="translate(0 0)" fill="#fff"/>
    <path id="Path_47" data-name="Path 47" d="M132.1,88.4h13.039a1.385,1.385,0,0,0,.948-.3,1.05,1.05,0,0,0,.389-.782V72.956h5V87.013a5.414,5.414,0,0,1-1.85,4.172,6.415,6.415,0,0,1-4.488,1.77H127.1v-20h5Z" transform="translate(-62.055 0)" fill="#fff"/>
    <path id="Path_48" data-name="Path 48" d="M217.3,72.956v4.566h9.381V92.956h5V77.521h9.063V72.956Z" transform="translate(-124.969)" fill="#fff"/>
    <path id="Path_49" data-name="Path 49" d="M309.429,72.956h-5V87.013a5.426,5.426,0,0,0,1.845,4.172,6.45,6.45,0,0,0,4.488,1.77h15.867V88.4H310.761a1.345,1.345,0,0,1-.943-.3,1.051,1.051,0,0,1-.389-.782Z" transform="translate(-185.694 0)" fill="#fff"/>
    <path id="Path_50" data-name="Path 50" d="M409.654,72.956h-22.2v4.566h22.2V72.956Zm-22.2,7.708v4.584h22.2V80.664h-22.2Zm.158,7.736a5.439,5.439,0,0,0,1.687,2.786,6.45,6.45,0,0,0,4.488,1.77h15.867V88.4H387.613Z" transform="translate(-243.561 0)" fill="#e1251b"/>
    <path id="Path_51" data-name="Path 51" d="M470.48,72.956v4.566h9.381V92.956h5V77.521h9.063V72.956Z" transform="translate(-301.43)" fill="#fff"/>
    <rect id="Rectangle_15" data-name="Rectangle 15" width="5" height="20" transform="translate(195.474 72.956)" fill="#fff"/>
    <path id="Path_52" data-name="Path 52" d="M606.171,72.956h-22.2V87.013a5.427,5.427,0,0,0,1.844,4.172,6.45,6.45,0,0,0,4.488,1.77h15.867V88.4H590.3a1.345,1.345,0,0,1-.943-.3,1.051,1.051,0,0,1-.389-.782v-9.8h17.2Z" transform="translate(-380.529 0)" fill="#fff"/>
    <path id="Path_53" data-name="Path 53" d="M690.128,80.8H671.694V78.837a1.289,1.289,0,0,1,.5-.9,1.517,1.517,0,0,1,1.066-.412h16.871V72.956H673.257a6.392,6.392,0,0,0-4.447,1.728A5.394,5.394,0,0,0,667,78.837v6.256h17.83V87.22a1.494,1.494,0,0,1-.477.759,1.54,1.54,0,0,1-1.065.407H667.011v4.571h16.871a6.371,6.371,0,0,0,4.442-1.728,5.4,5.4,0,0,0,1.819-4.158Z" transform="translate(-438.429 0)" fill="#fff"/>
    <g id="Group_17" data-name="Group 17" transform="translate(256.646 72.956)">
      <path id="Path_54" data-name="Path 54" d="M761.983,72.956H759.5V86.312h13.356V72.956Z" transform="translate(-759.5 -72.956)" fill="#e1251b" fill-rule="evenodd"/>
      <path id="Path_55" data-name="Path 55" d="M776,86.42h-3.036v3.036h-2.428V86.42H767.5V83.991h3.035V80.956h2.428v3.035H776V86.42Z" transform="translate(-765.072 -78.527)" fill="#fff" fill-rule="evenodd"/>
    </g>
  </g>
</svg>
