<?xml version="1.0" encoding="utf-8"?><svg viewBox="0 0 232 148" xmlns="http://www.w3.org/2000/svg" xmlns:xlink="http://www.w3.org/1999/xlink"><style>:root>svg{display:none}:root>svg:target{display:block}</style><svg viewBox="0 0 11.151 25.089" id="arrow-down" xmlns="http://www.w3.org/2000/svg"><defs><style>.aa{fill:#e1251b}</style></defs><path class="aa" d="M11.151 19.514l-.983-.983-3.9 3.889V0H4.879v22.42L.99 18.524l-.99.99 5.575 5.575z"/></svg><svg viewBox="0 0 10.829 6.414" id="arrow_donw" xmlns="http://www.w3.org/2000/svg"><path data-name="Path 10" d="M1.414 1.414l4 4 4-4" fill="none" stroke="#e1251b" stroke-linecap="round" stroke-linejoin="round" stroke-width="2"/></svg><svg viewBox="0 0 68.195 68.544" id="burger" xmlns="http://www.w3.org/2000/svg"><defs><style>.ca{fill:#e1251b}</style></defs><path class="ca" d="M68.195 0H0v15.644h68.195V0zM0 26.416v15.712h68.195V26.416H0zm.485 26.512a19.134 19.134 0 005.181 9.549 18.749 18.749 0 0013.786 6.066h48.743V52.928H.485z"/></svg><svg viewBox="0 0 108 108" id="circle" xmlns="http://www.w3.org/2000/svg"><g data-name="Ellipse 5" opacity=".49"><circle cx="54" cy="54" r="54"/><circle cx="54" cy="54" r="53.5"/></g></svg><svg viewBox="0 0 148 148" id="circle_2" xmlns="http://www.w3.org/2000/svg"><g opacity=".49"><circle cx="74" cy="74" r="74"/><circle cx="74" cy="74" r="73.5"/></g></svg><svg viewBox="0 0 31.5 31.5" id="icon-facebook-square" xmlns="http://www.w3.org/2000/svg"><path data-name="Icon awesome-facebook-square" d="M28.125 0H3.375A3.375 3.375 0 000 3.375v24.75A3.375 3.375 0 003.375 31.5h9.65V20.791H8.6V15.75h4.43v-3.842c0-4.37 2.6-6.784 6.586-6.784a26.836 26.836 0 013.9.34V9.75h-2.2a2.521 2.521 0 00-2.842 2.723v3.277h4.836l-.773 5.041h-4.062V31.5h9.65a3.375 3.375 0 003.375-3.375V3.375A3.375 3.375 0 0028.125 0z" fill="#fff"/></svg><svg viewBox="0 0 31.518 31.511" id="icon-instagram" xmlns="http://www.w3.org/2000/svg"><path data-name="Icon awesome-instagram" d="M15.762 7.676a8.079 8.079 0 108.079 8.079 8.066 8.066 0 00-8.079-8.079zm0 13.331a5.252 5.252 0 115.252-5.252 5.262 5.262 0 01-5.252 5.252zM26.056 7.346a1.884 1.884 0 11-1.885-1.884 1.88 1.88 0 011.885 1.884zm5.349 1.916a9.325 9.325 0 00-2.545-6.6 9.387 9.387 0 00-6.6-2.545c-2.6-.148-10.4-.148-13 0a9.373 9.373 0 00-6.6 2.538 9.356 9.356 0 00-2.545 6.6c-.148 2.6-.148 10.4 0 13a9.325 9.325 0 002.545 6.6 9.4 9.4 0 006.6 2.545c2.6.148 10.4.148 13 0a9.325 9.325 0 006.6-2.545 9.387 9.387 0 002.545-6.6c.148-2.6.148-10.392 0-12.994zm-3.359 15.781a5.318 5.318 0 01-3 3c-2.074.823-7 .633-9.288.633s-7.221.183-9.288-.633a5.318 5.318 0 01-3-3c-.823-2.074-.633-7-.633-9.288s-.183-7.221.633-9.288a5.318 5.318 0 013-3c2.074-.823 7-.633 9.288-.633s7.221-.183 9.288.633a5.318 5.318 0 013 3c.823 2.074.633 7 .633 9.288s.189 7.221-.633 9.288z" fill="#fff"/></svg><svg viewBox="0 0 31.5 31.5" id="icon-linkedin" xmlns="http://www.w3.org/2000/svg"><path data-name="Icon awesome-linkedin" d="M29.25 0H2.243A2.26 2.26 0 000 2.271v26.958A2.26 2.26 0 002.243 31.5H29.25a2.266 2.266 0 002.25-2.271V2.271A2.266 2.266 0 0029.25 0zM9.52 27H4.852V11.967h4.675V27zM7.186 9.914a2.707 2.707 0 112.707-2.707 2.708 2.708 0 01-2.707 2.707zM27.021 27h-4.669v-7.312c0-1.744-.035-3.987-2.426-3.987-2.433 0-2.805 1.9-2.805 3.86V27h-4.669V11.967h4.479v2.053h.063a4.917 4.917 0 014.423-2.426c4.725 0 5.6 3.115 5.6 7.165z" fill="#fff"/></svg><svg viewBox="0 0 21.233 37.467" id="left_arrow" xmlns="http://www.w3.org/2000/svg"><path data-name="Path 31" d="M17.698 3.536l-15.2 15.2 15.2 15.2" fill="none" stroke="#000" stroke-linecap="round" stroke-linejoin="round" stroke-width="5"/></svg><svg viewBox="0 0 232 20" id="logo" xmlns="http://www.w3.org/2000/svg"><g data-name="Group 18"><path data-name="Path 46" d="M-.002 14.057a5.426 5.426 0 001.844 4.172 6.414 6.414 0 004.488 1.77h11.381a6.414 6.414 0 004.488-1.77 5.426 5.426 0 001.845-4.172V0H6.332a6.41 6.41 0 00-4.488 1.765A5.44 5.44 0 00-.002 5.938v8.12zm5-8.419a1.065 1.065 0 01.389-.782 1.418 1.418 0 01.943-.3h1.532v.014h11.186v9.8a1.1 1.1 0 01-.389.782 1.43 1.43 0 01-.948.3h-1.532v-.014H7.864v.006H6.332a1.416 1.416 0 01-.943-.3 1.08 1.08 0 01-.391-.782z" fill="#fff"/><path data-name="Path 47" d="M32.043 15.444h13.039a1.385 1.385 0 00.948-.3 1.05 1.05 0 00.389-.782V0h5v14.057a5.414 5.414 0 01-1.85 4.172 6.415 6.415 0 01-4.488 1.77H27.043v-20h5z" fill="#fff"/><path data-name="Path 48" d="M54.329 0v4.566h9.381V20h5V4.565h9.063V0z" fill="#fff"/><path data-name="Path 49" d="M85.733 0h-5v14.057a5.426 5.426 0 001.845 4.172 6.45 6.45 0 004.488 1.77h15.867v-4.555H87.065a1.345 1.345 0 01-.943-.3 1.051 1.051 0 01-.389-.782z" fill="#fff"/><path data-name="Path 50" d="M128.091 0h-22.2v4.566h22.2V0zm-22.2 7.708v4.584h22.2V7.708h-22.2zm.158 7.736a5.439 5.439 0 001.687 2.786 6.45 6.45 0 004.488 1.77h15.867v-4.556H106.05z" fill="#e1251b"/><path data-name="Path 51" d="M131.048 0v4.566h9.381V20h5V4.565h9.063V0z" fill="#fff"/><path data-name="Rectangle 15" fill="#fff" d="M157.472 0h5v20h-5z"/><path data-name="Path 52" d="M187.64 0h-22.2v14.057a5.427 5.427 0 001.844 4.172 6.45 6.45 0 004.488 1.77h15.867v-4.555h-15.87a1.345 1.345 0 01-.943-.3 1.051 1.051 0 01-.389-.782v-9.8h17.2z" fill="#fff"/><path data-name="Path 53" d="M213.697 7.844h-18.434V5.881a1.289 1.289 0 01.5-.9 1.517 1.517 0 011.066-.412H213.7V0h-16.874a6.392 6.392 0 00-4.447 1.728 5.394 5.394 0 00-1.81 4.153v6.256h17.83v2.127a1.494 1.494 0 01-.477.759 1.54 1.54 0 01-1.065.407H190.58v4.571h16.871a6.371 6.371 0 004.442-1.728 5.4 5.4 0 001.819-4.158z" fill="#fff"/><g data-name="Group 17" fill-rule="evenodd"><path data-name="Path 54" d="M221.127 0h-2.483v13.356H232V0z" fill="#e1251b"/><path data-name="Path 55" d="M229.572 7.893h-3.036v3.036h-2.428V7.893h-3.036V5.464h3.035V2.429h2.428v3.035h3.037v2.429z" fill="#fff"/></g></g></svg><svg viewBox="0 0 21.233 37.467" id="next" xmlns="http://www.w3.org/2000/svg"><path data-name="Path 30" d="M3.536 33.931l15.2-15.2-15.2-15.2" fill="none" stroke="#000" stroke-linecap="round" stroke-linejoin="round" stroke-width="5"/></svg><svg viewBox="0 0 21.233 37.467" id="next-white" xmlns="http://www.w3.org/2000/svg"><path data-name="Path 30" d="M3.536 33.931l15.2-15.2-15.2-15.2" fill="none" stroke="#fff" stroke-linecap="round" stroke-linejoin="round" stroke-width="5"/></svg><svg viewBox="0 0 72 72" id="play_button" xmlns="http://www.w3.org/2000/svg"><defs><linearGradient id="ma" x1=".5" x2=".5" y2=".838" gradientUnits="objectBoundingBox"><stop offset="0" stop-color="#e1251b"/><stop offset=".384" stop-color="#e1251b"/><stop offset="1" stop-color="#c83a32"/></linearGradient></defs><g data-name="Group 56" transform="translate(-924 -304)"><circle data-name="Ellipse 4" cx="36" cy="36" r="36" transform="translate(924 304)" fill="url(#ma)"/><path data-name="Polygon 1" d="M968.89 337.775a3 3 0 010 5.169l-10.367 6.109a3 3 0 01-4.523-2.585V334.25a3 3 0 014.523-2.585z" fill="#fff"/></g></svg><svg viewBox="0 0 21.233 37.467" id="prev" xmlns="http://www.w3.org/2000/svg"><path data-name="Path 31" d="M17.698 3.536l-15.2 15.2 15.2 15.2" fill="none" stroke="#000" stroke-linecap="round" stroke-linejoin="round" stroke-width="5"/></svg><svg viewBox="0 0 21.233 37.467" id="prev-white" xmlns="http://www.w3.org/2000/svg"><path data-name="Path 31" d="M17.698 3.536l-15.2 15.2 15.2 15.2" fill="none" stroke="#fff" stroke-linecap="round" stroke-linejoin="round" stroke-width="5"/></svg><svg viewBox="0 0 21.233 37.467" id="right_arrow" xmlns="http://www.w3.org/2000/svg"><path data-name="Path 30" d="M3.536 33.931l15.2-15.2-15.2-15.2" fill="none" stroke="#000" stroke-linecap="round" stroke-linejoin="round" stroke-width="5"/></svg></svg>